<mxfile host="app.diagrams.net" agent="Mozilla/5.0 (Windows NT 10.0; Win64; x64) AppleWebKit/537.36 (KHTML, like Gecko) Chrome/137.0.0.0 Safari/537.36" version="27.1.3">
  <diagram name="Página-1" id="RN6qUwkXmXJioh9lJVVL">
    <mxGraphModel dx="2437" dy="1873" grid="1" gridSize="10" guides="1" tooltips="1" connect="1" arrows="1" fold="1" page="0" pageScale="1" pageWidth="1169" pageHeight="827" background="light-dark(#FFFFFF,#000000)" math="0" shadow="0">
      <root>
        <mxCell id="0" />
        <mxCell id="1" parent="0" />
        <mxCell id="u8_-o0xkHzn2XvbIuxs5-7" value="&lt;span style=&quot;border-bottom: 1px dotted&quot;&gt;&lt;font style=&quot;font-size: 15px;&quot;&gt;nombre&lt;/font&gt;&lt;/span&gt;" style="ellipse;whiteSpace=wrap;html=1;align=center;" parent="1" vertex="1">
          <mxGeometry x="-300" y="220" width="100" height="40" as="geometry" />
        </mxCell>
        <mxCell id="u8_-o0xkHzn2XvbIuxs5-8" value="" style="endArrow=none;html=1;rounded=0;" parent="1" edge="1">
          <mxGeometry relative="1" as="geometry">
            <mxPoint x="-100" y="240" as="sourcePoint" />
            <mxPoint x="-100" y="730" as="targetPoint" />
          </mxGeometry>
        </mxCell>
        <mxCell id="u8_-o0xkHzn2XvbIuxs5-9" value="" style="endArrow=none;html=1;rounded=0;" parent="1" edge="1">
          <mxGeometry relative="1" as="geometry">
            <mxPoint x="-200" y="239.29" as="sourcePoint" />
            <mxPoint x="-100" y="239.29" as="targetPoint" />
          </mxGeometry>
        </mxCell>
        <mxCell id="u8_-o0xkHzn2XvbIuxs5-10" value="&lt;span style=&quot;font-size: 15px;&quot;&gt;apellido&lt;/span&gt;" style="ellipse;whiteSpace=wrap;html=1;align=center;" parent="1" vertex="1">
          <mxGeometry x="-300" y="290" width="100" height="40" as="geometry" />
        </mxCell>
        <mxCell id="u8_-o0xkHzn2XvbIuxs5-11" value="" style="endArrow=none;html=1;rounded=0;" parent="1" edge="1">
          <mxGeometry relative="1" as="geometry">
            <mxPoint x="-200" y="309.7" as="sourcePoint" />
            <mxPoint x="-100" y="309.28999999999996" as="targetPoint" />
          </mxGeometry>
        </mxCell>
        <mxCell id="u8_-o0xkHzn2XvbIuxs5-12" value="&lt;span style=&quot;border-bottom: 1px dotted&quot;&gt;&lt;font style=&quot;font-size: 15px;&quot;&gt;email&lt;/font&gt;&lt;/span&gt;" style="ellipse;whiteSpace=wrap;html=1;align=center;" parent="1" vertex="1">
          <mxGeometry x="-300" y="350" width="100" height="40" as="geometry" />
        </mxCell>
        <mxCell id="u8_-o0xkHzn2XvbIuxs5-13" value="&lt;span style=&quot;border-bottom: 1px dotted&quot;&gt;&lt;font style=&quot;font-size: 15px;&quot;&gt;contraseña&lt;/font&gt;&lt;/span&gt;" style="ellipse;whiteSpace=wrap;html=1;align=center;" parent="1" vertex="1">
          <mxGeometry x="-300" y="410" width="100" height="40" as="geometry" />
        </mxCell>
        <mxCell id="u8_-o0xkHzn2XvbIuxs5-14" value="&lt;span style=&quot;border-bottom: 1px dotted&quot;&gt;&lt;font style=&quot;font-size: 15px;&quot;&gt;telefono&lt;/font&gt;&lt;/span&gt;" style="ellipse;whiteSpace=wrap;html=1;align=center;" parent="1" vertex="1">
          <mxGeometry x="-300" y="480" width="100" height="40" as="geometry" />
        </mxCell>
        <mxCell id="u8_-o0xkHzn2XvbIuxs5-3" value="&lt;font style=&quot;font-size: 20px;&quot;&gt;usuarios&lt;/font&gt;" style="shape=ext;margin=3;double=1;whiteSpace=wrap;html=1;align=center;" parent="1" vertex="1">
          <mxGeometry x="-10" y="510" width="130" height="90" as="geometry" />
        </mxCell>
        <mxCell id="3FY7Xd6svoK7raiZwcE3-3" value="&lt;font style=&quot;font-size: 20px;&quot;&gt;dispositivos&lt;/font&gt;" style="shape=ext;margin=3;double=1;whiteSpace=wrap;html=1;align=center;" parent="1" vertex="1">
          <mxGeometry x="490" y="-140" width="130" height="90" as="geometry" />
        </mxCell>
        <mxCell id="3FY7Xd6svoK7raiZwcE3-4" value="&lt;span style=&quot;border-bottom: 1px dotted&quot;&gt;&lt;font style=&quot;font-size: 15px;&quot;&gt;rol&lt;/font&gt;&lt;/span&gt;" style="ellipse;whiteSpace=wrap;html=1;align=center;" parent="1" vertex="1">
          <mxGeometry x="-300" y="550" width="100" height="40" as="geometry" />
        </mxCell>
        <mxCell id="3FY7Xd6svoK7raiZwcE3-6" value="" style="endArrow=none;html=1;rounded=0;" parent="1" edge="1">
          <mxGeometry relative="1" as="geometry">
            <mxPoint x="-200" y="369.7" as="sourcePoint" />
            <mxPoint x="-100" y="369.29" as="targetPoint" />
          </mxGeometry>
        </mxCell>
        <mxCell id="3FY7Xd6svoK7raiZwcE3-7" value="" style="endArrow=none;html=1;rounded=0;" parent="1" edge="1">
          <mxGeometry relative="1" as="geometry">
            <mxPoint x="-200" y="429.7" as="sourcePoint" />
            <mxPoint x="-100" y="429.29" as="targetPoint" />
          </mxGeometry>
        </mxCell>
        <mxCell id="3FY7Xd6svoK7raiZwcE3-8" value="" style="endArrow=none;html=1;rounded=0;" parent="1" edge="1">
          <mxGeometry relative="1" as="geometry">
            <mxPoint x="-200" y="499.7" as="sourcePoint" />
            <mxPoint x="-100" y="499.29" as="targetPoint" />
          </mxGeometry>
        </mxCell>
        <mxCell id="3FY7Xd6svoK7raiZwcE3-10" value="" style="endArrow=none;html=1;rounded=0;" parent="1" edge="1">
          <mxGeometry relative="1" as="geometry">
            <mxPoint x="-200" y="570" as="sourcePoint" />
            <mxPoint x="-100" y="570.09" as="targetPoint" />
            <Array as="points">
              <mxPoint x="-120" y="570" />
            </Array>
          </mxGeometry>
        </mxCell>
        <mxCell id="3FY7Xd6svoK7raiZwcE3-11" value="" style="endArrow=none;html=1;rounded=0;entryX=0;entryY=0.5;entryDx=0;entryDy=0;" parent="1" edge="1">
          <mxGeometry relative="1" as="geometry">
            <mxPoint x="-100" y="554" as="sourcePoint" />
            <mxPoint x="-10" y="554.29" as="targetPoint" />
            <Array as="points" />
          </mxGeometry>
        </mxCell>
        <mxCell id="3FY7Xd6svoK7raiZwcE3-21" value="&lt;font style=&quot;font-size: 20px;&quot;&gt;domicilios&lt;/font&gt;" style="shape=ext;margin=3;double=1;whiteSpace=wrap;html=1;align=center;" parent="1" vertex="1">
          <mxGeometry x="370" y="510" width="130" height="90" as="geometry" />
        </mxCell>
        <mxCell id="3FY7Xd6svoK7raiZwcE3-22" value="&lt;span style=&quot;border-bottom: 1px dotted&quot;&gt;&lt;font style=&quot;font-size: 15px;&quot;&gt;calle&lt;/font&gt;&lt;/span&gt;" style="ellipse;whiteSpace=wrap;html=1;align=center;" parent="1" vertex="1">
          <mxGeometry x="630" y="560" width="100" height="40" as="geometry" />
        </mxCell>
        <mxCell id="3FY7Xd6svoK7raiZwcE3-23" value="&lt;span style=&quot;border-bottom: 1px dotted&quot;&gt;&lt;font style=&quot;font-size: 15px;&quot;&gt;numero&lt;/font&gt;&lt;/span&gt;" style="ellipse;whiteSpace=wrap;html=1;align=center;" parent="1" vertex="1">
          <mxGeometry x="630" y="625" width="100" height="40" as="geometry" />
        </mxCell>
        <mxCell id="3FY7Xd6svoK7raiZwcE3-24" value="&lt;span style=&quot;border-bottom: 1px dotted&quot;&gt;&lt;font style=&quot;font-size: 15px;&quot;&gt;barrio&lt;/font&gt;&lt;/span&gt;" style="ellipse;whiteSpace=wrap;html=1;align=center;" parent="1" vertex="1">
          <mxGeometry x="630" y="700" width="100" height="40" as="geometry" />
        </mxCell>
        <mxCell id="3FY7Xd6svoK7raiZwcE3-25" value="&lt;span style=&quot;border-bottom: 1px dotted&quot;&gt;&lt;font style=&quot;font-size: 15px;&quot;&gt;ciudad&lt;/font&gt;&lt;/span&gt;" style="ellipse;whiteSpace=wrap;html=1;align=center;" parent="1" vertex="1">
          <mxGeometry x="630" y="770" width="100" height="40" as="geometry" />
        </mxCell>
        <mxCell id="3FY7Xd6svoK7raiZwcE3-26" value="&lt;span style=&quot;border-bottom: 1px dotted&quot;&gt;&lt;font style=&quot;font-size: 15px;&quot;&gt;pais&lt;/font&gt;&lt;/span&gt;" style="ellipse;whiteSpace=wrap;html=1;align=center;" parent="1" vertex="1">
          <mxGeometry x="630" y="840" width="100" height="40" as="geometry" />
        </mxCell>
        <mxCell id="3FY7Xd6svoK7raiZwcE3-27" value="&lt;span style=&quot;border-bottom: 1px dotted&quot;&gt;&lt;font style=&quot;font-size: 15px;&quot;&gt;id_domicilio&lt;/font&gt;&lt;/span&gt;" style="ellipse;whiteSpace=wrap;html=1;align=center;strokeColor=default;" parent="1" vertex="1">
          <mxGeometry x="630" y="490" width="100" height="40" as="geometry" />
        </mxCell>
        <mxCell id="3FY7Xd6svoK7raiZwcE3-30" value="&lt;span style=&quot;border-bottom: 1px dotted&quot;&gt;&lt;font style=&quot;font-size: 15px;&quot;&gt;fecha_creacion&lt;/font&gt;&lt;/span&gt;" style="ellipse;whiteSpace=wrap;html=1;align=center;" parent="1" vertex="1">
          <mxGeometry x="-320" y="710" width="120" height="40" as="geometry" />
        </mxCell>
        <mxCell id="3FY7Xd6svoK7raiZwcE3-31" value="" style="endArrow=none;html=1;rounded=0;" parent="1" edge="1">
          <mxGeometry relative="1" as="geometry">
            <mxPoint x="-200" y="649.6999999999999" as="sourcePoint" />
            <mxPoint x="-100" y="649.79" as="targetPoint" />
            <Array as="points">
              <mxPoint x="-130" y="649.41" />
            </Array>
          </mxGeometry>
        </mxCell>
        <mxCell id="3FY7Xd6svoK7raiZwcE3-34" value="&lt;span style=&quot;border-bottom: 1px dotted&quot;&gt;&lt;font style=&quot;font-size: 15px;&quot;&gt;fecha_nacimiento&lt;/font&gt;&lt;/span&gt;" style="ellipse;whiteSpace=wrap;html=1;align=center;" parent="1" vertex="1">
          <mxGeometry x="-330" y="630" width="130" height="40" as="geometry" />
        </mxCell>
        <mxCell id="3FY7Xd6svoK7raiZwcE3-35" value="" style="endArrow=none;html=1;rounded=0;" parent="1" edge="1">
          <mxGeometry relative="1" as="geometry">
            <mxPoint x="-200" y="729.9999999999999" as="sourcePoint" />
            <mxPoint x="-100" y="730.0899999999998" as="targetPoint" />
          </mxGeometry>
        </mxCell>
        <mxCell id="3FY7Xd6svoK7raiZwcE3-37" value="" style="endArrow=none;html=1;rounded=0;exitX=1;exitY=0.5;exitDx=0;exitDy=0;" parent="1" source="3FY7Xd6svoK7raiZwcE3-38" edge="1">
          <mxGeometry relative="1" as="geometry">
            <mxPoint x="300" y="360" as="sourcePoint" />
            <mxPoint x="340" y="555" as="targetPoint" />
          </mxGeometry>
        </mxCell>
        <mxCell id="3FY7Xd6svoK7raiZwcE3-39" value="" style="endArrow=none;html=1;rounded=0;entryX=0;entryY=0.5;entryDx=0;entryDy=0;exitX=1;exitY=0.5;exitDx=0;exitDy=0;" parent="1" source="u8_-o0xkHzn2XvbIuxs5-3" target="3FY7Xd6svoK7raiZwcE3-38" edge="1">
          <mxGeometry relative="1" as="geometry">
            <mxPoint x="150" y="250" as="sourcePoint" />
            <mxPoint x="400" y="245" as="targetPoint" />
          </mxGeometry>
        </mxCell>
        <mxCell id="3FY7Xd6svoK7raiZwcE3-38" value="&lt;div&gt;&lt;font style=&quot;font-size: 13px;&quot;&gt;TIENE&lt;/font&gt;&lt;/div&gt;&lt;div&gt;&lt;font style=&quot;font-size: 13px;&quot;&gt;N:N&lt;/font&gt;&lt;/div&gt;" style="shape=rhombus;perimeter=rhombusPerimeter;whiteSpace=wrap;html=1;align=center;" parent="1" vertex="1">
          <mxGeometry x="188.75" y="525" width="120" height="60" as="geometry" />
        </mxCell>
        <mxCell id="3FY7Xd6svoK7raiZwcE3-41" value="" style="endArrow=none;html=1;rounded=0;" parent="1" edge="1">
          <mxGeometry relative="1" as="geometry">
            <mxPoint x="580" y="510" as="sourcePoint" />
            <mxPoint x="580" y="860" as="targetPoint" />
            <Array as="points">
              <mxPoint x="580" y="750" />
            </Array>
          </mxGeometry>
        </mxCell>
        <mxCell id="3FY7Xd6svoK7raiZwcE3-42" value="" style="endArrow=none;html=1;rounded=0;entryX=0;entryY=0.5;entryDx=0;entryDy=0;" parent="1" target="3FY7Xd6svoK7raiZwcE3-27" edge="1">
          <mxGeometry relative="1" as="geometry">
            <mxPoint x="580" y="510" as="sourcePoint" />
            <mxPoint x="670" y="470" as="targetPoint" />
          </mxGeometry>
        </mxCell>
        <mxCell id="3FY7Xd6svoK7raiZwcE3-43" value="" style="endArrow=none;html=1;rounded=0;entryX=0;entryY=0.5;entryDx=0;entryDy=0;" parent="1" edge="1">
          <mxGeometry relative="1" as="geometry">
            <mxPoint x="580" y="579.5" as="sourcePoint" />
            <mxPoint x="630" y="579.5" as="targetPoint" />
          </mxGeometry>
        </mxCell>
        <mxCell id="3FY7Xd6svoK7raiZwcE3-44" value="" style="endArrow=none;html=1;rounded=0;entryX=0;entryY=0.5;entryDx=0;entryDy=0;" parent="1" edge="1">
          <mxGeometry relative="1" as="geometry">
            <mxPoint x="580" y="644.5" as="sourcePoint" />
            <mxPoint x="630" y="644.5" as="targetPoint" />
          </mxGeometry>
        </mxCell>
        <mxCell id="3FY7Xd6svoK7raiZwcE3-45" value="" style="endArrow=none;html=1;rounded=0;entryX=0;entryY=0.5;entryDx=0;entryDy=0;" parent="1" edge="1">
          <mxGeometry relative="1" as="geometry">
            <mxPoint x="580" y="719.5" as="sourcePoint" />
            <mxPoint x="630" y="719.5" as="targetPoint" />
          </mxGeometry>
        </mxCell>
        <mxCell id="3FY7Xd6svoK7raiZwcE3-46" value="" style="endArrow=none;html=1;rounded=0;entryX=0;entryY=0.5;entryDx=0;entryDy=0;" parent="1" edge="1">
          <mxGeometry relative="1" as="geometry">
            <mxPoint x="580" y="789.5" as="sourcePoint" />
            <mxPoint x="630" y="789.5" as="targetPoint" />
          </mxGeometry>
        </mxCell>
        <mxCell id="3FY7Xd6svoK7raiZwcE3-47" value="" style="endArrow=none;html=1;rounded=0;entryX=0;entryY=0.5;entryDx=0;entryDy=0;" parent="1" edge="1">
          <mxGeometry relative="1" as="geometry">
            <mxPoint x="580" y="859.5" as="sourcePoint" />
            <mxPoint x="630" y="859.5" as="targetPoint" />
          </mxGeometry>
        </mxCell>
        <mxCell id="PQYUU-_nngMEaI0ktpOC-4" value="" style="endArrow=none;html=1;rounded=0;entryX=1;entryY=0.5;entryDx=0;entryDy=0;" parent="1" target="PQYUU-_nngMEaI0ktpOC-5" edge="1">
          <mxGeometry width="50" height="50" relative="1" as="geometry">
            <mxPoint x="360" y="-400" as="sourcePoint" />
            <mxPoint x="298.75" y="-400" as="targetPoint" />
          </mxGeometry>
        </mxCell>
        <mxCell id="PQYUU-_nngMEaI0ktpOC-5" value="&lt;span style=&quot;border-bottom: 1px dotted&quot;&gt;&lt;font style=&quot;font-size: 15px;&quot;&gt;id_dispositivo&lt;/font&gt;&lt;/span&gt;" style="ellipse;whiteSpace=wrap;html=1;align=center;" parent="1" vertex="1">
          <mxGeometry x="188.75" y="-420" width="120" height="40" as="geometry" />
        </mxCell>
        <mxCell id="PQYUU-_nngMEaI0ktpOC-7" value="&lt;span style=&quot;border-bottom: 1px dotted&quot;&gt;&lt;font style=&quot;font-size: 15px;&quot;&gt;id_tipo_dispositivo&lt;/font&gt;&lt;/span&gt;" style="ellipse;whiteSpace=wrap;html=1;align=center;" parent="1" vertex="1">
          <mxGeometry x="148.75" y="-350" width="151.25" height="40" as="geometry" />
        </mxCell>
        <mxCell id="PQYUU-_nngMEaI0ktpOC-8" value="&lt;span style=&quot;border-bottom: 1px dotted&quot;&gt;&lt;font style=&quot;font-size: 15px;&quot;&gt;estado&lt;/font&gt;&lt;/span&gt;" style="ellipse;whiteSpace=wrap;html=1;align=center;points=[[0,0,0,0,0],[0,0.5,0,0,0],[0,1,0,0,0],[0.5,0,0,0,0],[0.5,1,0,0,0],[1,0,0,0,0],[1,0.5,0,0,0],[1,1,0,0,0]];" parent="1" vertex="1">
          <mxGeometry x="188.75" y="-220" width="100" height="40" as="geometry" />
        </mxCell>
        <mxCell id="PQYUU-_nngMEaI0ktpOC-11" value="&lt;span style=&quot;border-bottom: 1px dotted&quot;&gt;&lt;font style=&quot;font-size: 15px;&quot;&gt;nombre_dispositivo&lt;/font&gt;&lt;/span&gt;" style="ellipse;whiteSpace=wrap;html=1;align=center;" parent="1" vertex="1">
          <mxGeometry x="148.75" y="-290" width="151.25" height="40" as="geometry" />
        </mxCell>
        <mxCell id="PQYUU-_nngMEaI0ktpOC-13" value="&lt;span style=&quot;font-size: 20px;&quot;&gt;automatizaciones&lt;/span&gt;" style="shape=ext;margin=3;double=1;whiteSpace=wrap;html=1;align=center;" parent="1" vertex="1">
          <mxGeometry x="841.25" y="-450" width="230" height="90" as="geometry" />
        </mxCell>
        <mxCell id="PQYUU-_nngMEaI0ktpOC-15" value="" style="endArrow=none;html=1;rounded=0;" parent="1" edge="1">
          <mxGeometry width="50" height="50" relative="1" as="geometry">
            <mxPoint x="360" y="-400" as="sourcePoint" />
            <mxPoint x="360" y="60" as="targetPoint" />
            <Array as="points">
              <mxPoint x="360" y="-60" />
            </Array>
          </mxGeometry>
        </mxCell>
        <mxCell id="PQYUU-_nngMEaI0ktpOC-16" value="" style="endArrow=none;html=1;rounded=0;entryX=1;entryY=0.5;entryDx=0;entryDy=0;" parent="1" target="PQYUU-_nngMEaI0ktpOC-7" edge="1">
          <mxGeometry width="50" height="50" relative="1" as="geometry">
            <mxPoint x="360" y="-330" as="sourcePoint" />
            <mxPoint x="310" y="-350" as="targetPoint" />
          </mxGeometry>
        </mxCell>
        <mxCell id="PQYUU-_nngMEaI0ktpOC-17" value="" style="endArrow=none;html=1;rounded=0;" parent="1" edge="1">
          <mxGeometry width="50" height="50" relative="1" as="geometry">
            <mxPoint x="360" y="-270" as="sourcePoint" />
            <mxPoint x="300" y="-270" as="targetPoint" />
          </mxGeometry>
        </mxCell>
        <mxCell id="PQYUU-_nngMEaI0ktpOC-20" value="" style="endArrow=none;html=1;rounded=0;entryX=1;entryY=0.5;entryDx=0;entryDy=0;entryPerimeter=0;" parent="1" target="PQYUU-_nngMEaI0ktpOC-8" edge="1">
          <mxGeometry width="50" height="50" relative="1" as="geometry">
            <mxPoint x="360" y="-200" as="sourcePoint" />
            <mxPoint x="288.75" y="-205" as="targetPoint" />
          </mxGeometry>
        </mxCell>
        <mxCell id="PQYUU-_nngMEaI0ktpOC-21" value="&lt;span style=&quot;font-size: 20px;&quot;&gt;ubicaciones_casa&lt;/span&gt;" style="shape=ext;margin=3;double=1;whiteSpace=wrap;html=1;align=center;" parent="1" vertex="1">
          <mxGeometry x="440" y="205" width="230" height="90" as="geometry" />
        </mxCell>
        <mxCell id="PQYUU-_nngMEaI0ktpOC-22" value="&lt;span style=&quot;border-bottom: 1px dotted&quot;&gt;&lt;font style=&quot;font-size: 15px;&quot;&gt;id_ubicacion_casa&lt;/font&gt;&lt;/span&gt;" style="ellipse;whiteSpace=wrap;html=1;align=center;" parent="1" vertex="1">
          <mxGeometry x="130" y="-90" width="170" height="40" as="geometry" />
        </mxCell>
        <mxCell id="PQYUU-_nngMEaI0ktpOC-23" value="" style="endArrow=none;html=1;rounded=0;" parent="1" edge="1">
          <mxGeometry width="50" height="50" relative="1" as="geometry">
            <mxPoint x="360" y="-70" as="sourcePoint" />
            <mxPoint x="300" y="-70" as="targetPoint" />
          </mxGeometry>
        </mxCell>
        <mxCell id="PQYUU-_nngMEaI0ktpOC-24" value="&lt;span style=&quot;border-bottom: 1px dotted&quot;&gt;&lt;font style=&quot;font-size: 15px;&quot;&gt;id_usuario&lt;/font&gt;&lt;/span&gt;" style="ellipse;whiteSpace=wrap;html=1;align=center;" parent="1" vertex="1">
          <mxGeometry x="130" y="-20" width="170" height="40" as="geometry" />
        </mxCell>
        <mxCell id="PQYUU-_nngMEaI0ktpOC-25" value="" style="endArrow=none;html=1;rounded=0;" parent="1" edge="1">
          <mxGeometry width="50" height="50" relative="1" as="geometry">
            <mxPoint x="360" y="-0.5899999999999999" as="sourcePoint" />
            <mxPoint x="300" y="-0.5899999999999999" as="targetPoint" />
          </mxGeometry>
        </mxCell>
        <mxCell id="PQYUU-_nngMEaI0ktpOC-27" value="" style="endArrow=none;html=1;rounded=0;" parent="1" edge="1">
          <mxGeometry width="50" height="50" relative="1" as="geometry">
            <mxPoint x="360" y="60" as="sourcePoint" />
            <mxPoint x="300" y="60" as="targetPoint" />
          </mxGeometry>
        </mxCell>
        <mxCell id="PQYUU-_nngMEaI0ktpOC-28" value="&lt;span style=&quot;border-bottom: 1px dotted&quot;&gt;&lt;font style=&quot;font-size: 15px;&quot;&gt;fecha_creacion&lt;/font&gt;&lt;/span&gt;" style="ellipse;whiteSpace=wrap;html=1;align=center;" parent="1" vertex="1">
          <mxGeometry x="130" y="40" width="170" height="40" as="geometry" />
        </mxCell>
        <mxCell id="PQYUU-_nngMEaI0ktpOC-44" value="&lt;font style=&quot;font-size: 15px;&quot;&gt;permite_configuracion&lt;/font&gt;" style="ellipse;whiteSpace=wrap;html=1;" parent="1" vertex="1">
          <mxGeometry x="1250" y="10" width="180" height="50" as="geometry" />
        </mxCell>
        <mxCell id="PQYUU-_nngMEaI0ktpOC-46" value="&lt;font style=&quot;font-size: 15px;&quot;&gt;descripcion&lt;/font&gt;" style="ellipse;whiteSpace=wrap;html=1;" parent="1" vertex="1">
          <mxGeometry x="1280" y="90" width="120" height="50" as="geometry" />
        </mxCell>
        <mxCell id="PQYUU-_nngMEaI0ktpOC-52" value="&lt;font style=&quot;font-size: 15px;&quot;&gt;id_ubicacion_casa&lt;/font&gt;" style="ellipse;whiteSpace=wrap;html=1;" parent="1" vertex="1">
          <mxGeometry x="850" y="120" width="145" height="80" as="geometry" />
        </mxCell>
        <mxCell id="PQYUU-_nngMEaI0ktpOC-56" value="&lt;font style=&quot;font-size: 15px;&quot;&gt;nombre_ubicacion&lt;/font&gt;" style="ellipse;whiteSpace=wrap;html=1;" parent="1" vertex="1">
          <mxGeometry x="860" y="300" width="145" height="80" as="geometry" />
        </mxCell>
        <mxCell id="PQYUU-_nngMEaI0ktpOC-60" value="&lt;font style=&quot;font-size: 16px;&quot;&gt;id_automatizacion&lt;/font&gt;" style="ellipse;whiteSpace=wrap;html=1;" parent="1" vertex="1">
          <mxGeometry x="1200" y="-535" width="150" height="70" as="geometry" />
        </mxCell>
        <mxCell id="PQYUU-_nngMEaI0ktpOC-62" value="&lt;font style=&quot;font-size: 16px;&quot;&gt;id_dispositivo&lt;/font&gt;" style="ellipse;whiteSpace=wrap;html=1;" parent="1" vertex="1">
          <mxGeometry x="1200" y="-440" width="180" height="70" as="geometry" />
        </mxCell>
        <mxCell id="PQYUU-_nngMEaI0ktpOC-65" value="&lt;font style=&quot;font-size: 16px;&quot;&gt;id_ubicacion_casa&lt;/font&gt;" style="ellipse;whiteSpace=wrap;html=1;" parent="1" vertex="1">
          <mxGeometry x="1200" y="-345" width="170" height="70" as="geometry" />
        </mxCell>
        <mxCell id="PQYUU-_nngMEaI0ktpOC-71" value="&lt;font style=&quot;font-size: 14px;&quot;&gt;TIENE&lt;/font&gt;&lt;div&gt;&lt;font style=&quot;font-size: 14px;&quot;&gt;1:1&lt;/font&gt;&lt;/div&gt;" style="rhombus;whiteSpace=wrap;html=1;" parent="1" vertex="1">
          <mxGeometry x="671.25" y="-280" width="80" height="80" as="geometry" />
        </mxCell>
        <mxCell id="9aWKp1DlWxSWSAv2HUEG-2" value="&lt;font style=&quot;font-size: 15px;&quot;&gt;id_domicilio&lt;/font&gt;" style="ellipse;whiteSpace=wrap;html=1;" parent="1" vertex="1">
          <mxGeometry x="860" y="210" width="145" height="80" as="geometry" />
        </mxCell>
        <mxCell id="e76gL8wItpxrsiZWBFDr-9" value="&lt;div&gt;&lt;font style=&quot;font-size: 13px;&quot;&gt;TIENE&lt;/font&gt;&lt;/div&gt;&lt;div&gt;&lt;font style=&quot;font-size: 13px;&quot;&gt;1:N&lt;/font&gt;&lt;/div&gt;" style="shape=rhombus;perimeter=rhombusPerimeter;whiteSpace=wrap;html=1;align=center;" parent="1" vertex="1">
          <mxGeometry x="420" y="380" width="120" height="60" as="geometry" />
        </mxCell>
        <mxCell id="e76gL8wItpxrsiZWBFDr-11" value="&lt;div&gt;&lt;font style=&quot;font-size: 13px;&quot;&gt;TIENE&lt;/font&gt;&lt;/div&gt;&lt;div&gt;&lt;span style=&quot;font-size: 13px;&quot;&gt;1:N&lt;/span&gt;&lt;/div&gt;" style="shape=rhombus;perimeter=rhombusPerimeter;whiteSpace=wrap;html=1;align=center;" parent="1" vertex="1">
          <mxGeometry x="495" y="50" width="120" height="60" as="geometry" />
        </mxCell>
        <mxCell id="eNG17uDxJaIBUiNM3jQK-4" value="" style="endArrow=none;html=1;rounded=0;" parent="1" edge="1">
          <mxGeometry width="50" height="50" relative="1" as="geometry">
            <mxPoint x="540" y="680" as="sourcePoint" />
            <mxPoint x="580" y="680" as="targetPoint" />
          </mxGeometry>
        </mxCell>
        <mxCell id="eNG17uDxJaIBUiNM3jQK-5" value="" style="endArrow=none;html=1;rounded=0;entryX=0;entryY=0.5;entryDx=0;entryDy=0;" parent="1" target="3FY7Xd6svoK7raiZwcE3-21" edge="1">
          <mxGeometry width="50" height="50" relative="1" as="geometry">
            <mxPoint x="340" y="555" as="sourcePoint" />
            <mxPoint x="370" y="410" as="targetPoint" />
          </mxGeometry>
        </mxCell>
        <mxCell id="eNG17uDxJaIBUiNM3jQK-7" value="" style="endArrow=none;html=1;rounded=0;exitX=0.5;exitY=0;exitDx=0;exitDy=0;entryX=0.5;entryY=1;entryDx=0;entryDy=0;" parent="1" source="e76gL8wItpxrsiZWBFDr-11" target="3FY7Xd6svoK7raiZwcE3-3" edge="1">
          <mxGeometry width="50" height="50" relative="1" as="geometry">
            <mxPoint x="610" y="-10" as="sourcePoint" />
            <mxPoint x="660" y="-60" as="targetPoint" />
          </mxGeometry>
        </mxCell>
        <mxCell id="eNG17uDxJaIBUiNM3jQK-17" value="" style="endArrow=none;html=1;rounded=0;entryX=0;entryY=0.5;entryDx=0;entryDy=0;" parent="1" target="3FY7Xd6svoK7raiZwcE3-3" edge="1">
          <mxGeometry width="50" height="50" relative="1" as="geometry">
            <mxPoint x="360" y="-95" as="sourcePoint" />
            <mxPoint x="550" y="-70" as="targetPoint" />
          </mxGeometry>
        </mxCell>
        <mxCell id="eNG17uDxJaIBUiNM3jQK-21" value="" style="endArrow=none;html=1;rounded=0;entryX=0.5;entryY=1;entryDx=0;entryDy=0;" parent="1" source="PQYUU-_nngMEaI0ktpOC-21" target="e76gL8wItpxrsiZWBFDr-11" edge="1">
          <mxGeometry width="50" height="50" relative="1" as="geometry">
            <mxPoint x="500" y="300" as="sourcePoint" />
            <mxPoint x="550" y="250" as="targetPoint" />
          </mxGeometry>
        </mxCell>
        <mxCell id="eNG17uDxJaIBUiNM3jQK-22" value="" style="endArrow=none;html=1;rounded=0;exitX=1;exitY=0.5;exitDx=0;exitDy=0;" parent="1" source="PQYUU-_nngMEaI0ktpOC-21" edge="1">
          <mxGeometry width="50" height="50" relative="1" as="geometry">
            <mxPoint x="700" y="240" as="sourcePoint" />
            <mxPoint x="780" y="250" as="targetPoint" />
          </mxGeometry>
        </mxCell>
        <mxCell id="eNG17uDxJaIBUiNM3jQK-23" value="" style="endArrow=none;html=1;rounded=0;" parent="1" edge="1">
          <mxGeometry width="50" height="50" relative="1" as="geometry">
            <mxPoint x="780" y="340" as="sourcePoint" />
            <mxPoint x="780" y="160" as="targetPoint" />
          </mxGeometry>
        </mxCell>
        <mxCell id="eNG17uDxJaIBUiNM3jQK-24" value="" style="endArrow=none;html=1;rounded=0;" parent="1" edge="1">
          <mxGeometry width="50" height="50" relative="1" as="geometry">
            <mxPoint x="780" y="160" as="sourcePoint" />
            <mxPoint x="850" y="160" as="targetPoint" />
            <Array as="points">
              <mxPoint x="830" y="160" />
            </Array>
          </mxGeometry>
        </mxCell>
        <mxCell id="eNG17uDxJaIBUiNM3jQK-25" value="" style="endArrow=none;html=1;rounded=0;entryX=0;entryY=0.5;entryDx=0;entryDy=0;" parent="1" edge="1" target="9aWKp1DlWxSWSAv2HUEG-2">
          <mxGeometry width="50" height="50" relative="1" as="geometry">
            <mxPoint x="780" y="248.75" as="sourcePoint" />
            <mxPoint x="860" y="251" as="targetPoint" />
          </mxGeometry>
        </mxCell>
        <mxCell id="eNG17uDxJaIBUiNM3jQK-26" value="" style="endArrow=none;html=1;rounded=0;" parent="1" edge="1">
          <mxGeometry width="50" height="50" relative="1" as="geometry">
            <mxPoint x="780" y="340" as="sourcePoint" />
            <mxPoint x="860" y="340" as="targetPoint" />
          </mxGeometry>
        </mxCell>
        <mxCell id="eNG17uDxJaIBUiNM3jQK-27" value="" style="endArrow=none;html=1;rounded=0;exitX=0.5;exitY=0;exitDx=0;exitDy=0;" parent="1" source="e76gL8wItpxrsiZWBFDr-9" edge="1">
          <mxGeometry width="50" height="50" relative="1" as="geometry">
            <mxPoint x="510" y="420" as="sourcePoint" />
            <mxPoint x="480" y="340" as="targetPoint" />
          </mxGeometry>
        </mxCell>
        <mxCell id="eNG17uDxJaIBUiNM3jQK-29" value="" style="endArrow=none;html=1;rounded=0;entryX=0.525;entryY=0.997;entryDx=0;entryDy=0;entryPerimeter=0;" parent="1" target="PQYUU-_nngMEaI0ktpOC-21" edge="1">
          <mxGeometry width="50" height="50" relative="1" as="geometry">
            <mxPoint x="560" y="340" as="sourcePoint" />
            <mxPoint x="560" y="320" as="targetPoint" />
          </mxGeometry>
        </mxCell>
        <mxCell id="eNG17uDxJaIBUiNM3jQK-30" value="" style="endArrow=none;html=1;rounded=0;" parent="1" edge="1">
          <mxGeometry width="50" height="50" relative="1" as="geometry">
            <mxPoint x="480" y="340" as="sourcePoint" />
            <mxPoint x="560" y="340" as="targetPoint" />
          </mxGeometry>
        </mxCell>
        <mxCell id="eNG17uDxJaIBUiNM3jQK-31" value="" style="endArrow=none;html=1;rounded=0;entryX=0.5;entryY=1;entryDx=0;entryDy=0;exitX=0.848;exitY=0.004;exitDx=0;exitDy=0;exitPerimeter=0;" parent="1" source="3FY7Xd6svoK7raiZwcE3-21" target="e76gL8wItpxrsiZWBFDr-9" edge="1">
          <mxGeometry width="50" height="50" relative="1" as="geometry">
            <mxPoint x="550" y="510" as="sourcePoint" />
            <mxPoint x="600" y="460" as="targetPoint" />
          </mxGeometry>
        </mxCell>
        <mxCell id="eNG17uDxJaIBUiNM3jQK-32" value="" style="endArrow=none;html=1;rounded=0;entryX=0;entryY=0.5;entryDx=0;entryDy=0;" parent="1" target="PQYUU-_nngMEaI0ktpOC-62" edge="1">
          <mxGeometry width="50" height="50" relative="1" as="geometry">
            <mxPoint x="1160" y="-405" as="sourcePoint" />
            <mxPoint x="1280" y="-375" as="targetPoint" />
          </mxGeometry>
        </mxCell>
        <mxCell id="eNG17uDxJaIBUiNM3jQK-33" value="" style="endArrow=none;html=1;rounded=0;entryX=0;entryY=0.5;entryDx=0;entryDy=0;" parent="1" target="PQYUU-_nngMEaI0ktpOC-60" edge="1">
          <mxGeometry width="50" height="50" relative="1" as="geometry">
            <mxPoint x="1160" y="-485" as="sourcePoint" />
            <mxPoint x="1280" y="-385" as="targetPoint" />
          </mxGeometry>
        </mxCell>
        <mxCell id="eNG17uDxJaIBUiNM3jQK-34" value="" style="endArrow=none;html=1;rounded=0;exitX=0;exitY=0.5;exitDx=0;exitDy=0;" parent="1" source="PQYUU-_nngMEaI0ktpOC-65" edge="1">
          <mxGeometry width="50" height="50" relative="1" as="geometry">
            <mxPoint x="1230" y="-315" as="sourcePoint" />
            <mxPoint x="1160" y="-325" as="targetPoint" />
          </mxGeometry>
        </mxCell>
        <mxCell id="eNG17uDxJaIBUiNM3jQK-36" value="" style="endArrow=none;html=1;rounded=0;" parent="1" edge="1">
          <mxGeometry width="50" height="50" relative="1" as="geometry">
            <mxPoint x="1160" y="-325" as="sourcePoint" />
            <mxPoint x="1160" y="-485" as="targetPoint" />
          </mxGeometry>
        </mxCell>
        <mxCell id="eNG17uDxJaIBUiNM3jQK-37" value="" style="endArrow=none;html=1;rounded=0;exitX=1;exitY=0.5;exitDx=0;exitDy=0;" parent="1" source="PQYUU-_nngMEaI0ktpOC-13" edge="1">
          <mxGeometry width="50" height="50" relative="1" as="geometry">
            <mxPoint x="1220" y="-400" as="sourcePoint" />
            <mxPoint x="1160" y="-405" as="targetPoint" />
          </mxGeometry>
        </mxCell>
        <mxCell id="eNG17uDxJaIBUiNM3jQK-43" value="&lt;b&gt;N&lt;/b&gt;" style="text;html=1;align=center;verticalAlign=middle;whiteSpace=wrap;rounded=0;" parent="1" vertex="1">
          <mxGeometry x="350" y="510" width="20" height="20" as="geometry" />
        </mxCell>
        <mxCell id="eNG17uDxJaIBUiNM3jQK-45" value="&lt;b&gt;1&lt;/b&gt;" style="text;html=1;align=center;verticalAlign=middle;whiteSpace=wrap;rounded=0;" parent="1" vertex="1">
          <mxGeometry x="460" y="490" width="20" height="20" as="geometry" />
        </mxCell>
        <mxCell id="eNG17uDxJaIBUiNM3jQK-50" value="" style="endArrow=none;html=1;rounded=0;" parent="1" edge="1">
          <mxGeometry width="50" height="50" relative="1" as="geometry">
            <mxPoint x="540" y="680" as="sourcePoint" />
            <mxPoint x="540" y="560" as="targetPoint" />
          </mxGeometry>
        </mxCell>
        <mxCell id="eNG17uDxJaIBUiNM3jQK-51" value="" style="endArrow=none;html=1;rounded=0;" parent="1" edge="1">
          <mxGeometry width="50" height="50" relative="1" as="geometry">
            <mxPoint x="500" y="560" as="sourcePoint" />
            <mxPoint x="540" y="560" as="targetPoint" />
          </mxGeometry>
        </mxCell>
        <mxCell id="eNG17uDxJaIBUiNM3jQK-52" value="" style="endArrow=none;html=1;rounded=0;exitX=0.537;exitY=-0.003;exitDx=0;exitDy=0;exitPerimeter=0;" parent="1" source="3FY7Xd6svoK7raiZwcE3-3" edge="1">
          <mxGeometry width="50" height="50" relative="1" as="geometry">
            <mxPoint x="560" y="-150" as="sourcePoint" />
            <mxPoint x="560" y="-240" as="targetPoint" />
          </mxGeometry>
        </mxCell>
        <mxCell id="eNG17uDxJaIBUiNM3jQK-53" value="" style="endArrow=none;html=1;rounded=0;entryX=0;entryY=0.5;entryDx=0;entryDy=0;" parent="1" target="PQYUU-_nngMEaI0ktpOC-71" edge="1">
          <mxGeometry width="50" height="50" relative="1" as="geometry">
            <mxPoint x="560" y="-240" as="sourcePoint" />
            <mxPoint x="640" y="-210" as="targetPoint" />
          </mxGeometry>
        </mxCell>
        <mxCell id="eNG17uDxJaIBUiNM3jQK-54" value="" style="endArrow=none;html=1;rounded=0;exitX=1;exitY=0.5;exitDx=0;exitDy=0;" parent="1" source="PQYUU-_nngMEaI0ktpOC-71" edge="1">
          <mxGeometry width="50" height="50" relative="1" as="geometry">
            <mxPoint x="830" y="-200" as="sourcePoint" />
            <mxPoint x="960" y="-240" as="targetPoint" />
          </mxGeometry>
        </mxCell>
        <mxCell id="eNG17uDxJaIBUiNM3jQK-55" value="" style="endArrow=none;html=1;rounded=0;" parent="1" edge="1">
          <mxGeometry width="50" height="50" relative="1" as="geometry">
            <mxPoint x="960" y="-240" as="sourcePoint" />
            <mxPoint x="960" y="-360" as="targetPoint" />
          </mxGeometry>
        </mxCell>
        <mxCell id="eNG17uDxJaIBUiNM3jQK-58" value="&lt;b&gt;1&lt;/b&gt;" style="text;html=1;align=center;verticalAlign=middle;whiteSpace=wrap;rounded=0;" parent="1" vertex="1">
          <mxGeometry x="560" y="-160" width="20" height="20" as="geometry" />
        </mxCell>
        <mxCell id="eNG17uDxJaIBUiNM3jQK-59" value="&lt;b&gt;1&lt;/b&gt;" style="text;html=1;align=center;verticalAlign=middle;whiteSpace=wrap;rounded=0;" parent="1" vertex="1">
          <mxGeometry x="940" y="-360" width="20" height="20" as="geometry" />
        </mxCell>
        <mxCell id="eNG17uDxJaIBUiNM3jQK-60" value="&lt;b&gt;1&lt;/b&gt;" style="text;html=1;align=center;verticalAlign=middle;whiteSpace=wrap;rounded=0;" parent="1" vertex="1">
          <mxGeometry x="560" y="180" width="20" height="20" as="geometry" />
        </mxCell>
        <mxCell id="9W7iCBFBEu6Ouapv9Jzr-2" value="&lt;font style=&quot;font-size: 20px;&quot;&gt;usuarios_domicilios&lt;/font&gt;" style="shape=ext;margin=3;double=1;whiteSpace=wrap;html=1;align=center;" parent="1" vertex="1">
          <mxGeometry x="105" y="780" width="220" height="90" as="geometry" />
        </mxCell>
        <mxCell id="9W7iCBFBEu6Ouapv9Jzr-3" value="&lt;span style=&quot;font-size: 20px;&quot;&gt;id_domicilio&lt;/span&gt;" style="ellipse;whiteSpace=wrap;html=1;" parent="1" vertex="1">
          <mxGeometry x="280" y="930" width="130" height="80" as="geometry" />
        </mxCell>
        <mxCell id="9W7iCBFBEu6Ouapv9Jzr-7" value="&lt;span style=&quot;font-size: 20px;&quot;&gt;id_usuario&lt;/span&gt;" style="ellipse;whiteSpace=wrap;html=1;" parent="1" vertex="1">
          <mxGeometry x="30" y="930" width="125" height="80" as="geometry" />
        </mxCell>
        <mxCell id="9W7iCBFBEu6Ouapv9Jzr-8" value="" style="endArrow=none;html=1;rounded=0;exitX=0.5;exitY=0;exitDx=0;exitDy=0;entryX=0.117;entryY=0.998;entryDx=0;entryDy=0;entryPerimeter=0;" parent="1" source="9W7iCBFBEu6Ouapv9Jzr-7" edge="1" target="9W7iCBFBEu6Ouapv9Jzr-2">
          <mxGeometry width="50" height="50" relative="1" as="geometry">
            <mxPoint x="90" y="910" as="sourcePoint" />
            <mxPoint x="140" y="860" as="targetPoint" />
          </mxGeometry>
        </mxCell>
        <mxCell id="9W7iCBFBEu6Ouapv9Jzr-9" value="" style="endArrow=none;html=1;rounded=0;exitX=0.397;exitY=0.016;exitDx=0;exitDy=0;entryX=0.913;entryY=1.014;entryDx=0;entryDy=0;exitPerimeter=0;entryPerimeter=0;" parent="1" source="9W7iCBFBEu6Ouapv9Jzr-3" target="9W7iCBFBEu6Ouapv9Jzr-2" edge="1">
          <mxGeometry width="50" height="50" relative="1" as="geometry">
            <mxPoint x="230" y="960" as="sourcePoint" />
            <mxPoint x="277" y="890" as="targetPoint" />
          </mxGeometry>
        </mxCell>
        <mxCell id="9W7iCBFBEu6Ouapv9Jzr-11" value="&lt;b&gt;N&lt;/b&gt;" style="text;html=1;align=center;verticalAlign=middle;whiteSpace=wrap;rounded=0;" parent="1" vertex="1">
          <mxGeometry x="128.75" y="510" width="20" height="20" as="geometry" />
        </mxCell>
        <mxCell id="9W7iCBFBEu6Ouapv9Jzr-12" value="&lt;b&gt;N&lt;/b&gt;" style="text;html=1;align=center;verticalAlign=middle;whiteSpace=wrap;rounded=0;" parent="1" vertex="1">
          <mxGeometry x="560" y="300" width="20" height="20" as="geometry" />
        </mxCell>
        <mxCell id="8wUv1ZEfotfngisq_kr5-1" value="&lt;b&gt;N&lt;/b&gt;" style="text;html=1;align=center;verticalAlign=middle;whiteSpace=wrap;rounded=0;" parent="1" vertex="1">
          <mxGeometry x="560" y="-45" width="20" height="20" as="geometry" />
        </mxCell>
        <mxCell id="EQy5KtM84WTioe9oO2fu-1" value="&lt;font style=&quot;font-size: 16px;&quot;&gt;nombre_automatizacion&lt;/font&gt;" style="ellipse;whiteSpace=wrap;html=1;" vertex="1" parent="1">
          <mxGeometry x="1490" y="-500" width="210" height="70" as="geometry" />
        </mxCell>
        <mxCell id="EQy5KtM84WTioe9oO2fu-2" value="&lt;font style=&quot;font-size: 16px;&quot;&gt;descripcion_automatizacion&lt;/font&gt;" style="ellipse;whiteSpace=wrap;html=1;" vertex="1" parent="1">
          <mxGeometry x="1470" y="-600" width="240" height="70" as="geometry" />
        </mxCell>
        <mxCell id="EQy5KtM84WTioe9oO2fu-3" value="&lt;font style=&quot;font-size: 16px;&quot;&gt;regla_automatizacion&lt;/font&gt;" style="ellipse;whiteSpace=wrap;html=1;" vertex="1" parent="1">
          <mxGeometry x="1500" y="-400" width="210" height="70" as="geometry" />
        </mxCell>
        <mxCell id="EQy5KtM84WTioe9oO2fu-4" value="&lt;font style=&quot;font-size: 16px;&quot;&gt;condicion_automatizacion&lt;/font&gt;" style="ellipse;whiteSpace=wrap;html=1;" vertex="1" parent="1">
          <mxGeometry x="1500" y="-300" width="210" height="70" as="geometry" />
        </mxCell>
        <mxCell id="EQy5KtM84WTioe9oO2fu-5" value="&lt;font style=&quot;font-size: 16px;&quot;&gt;estado&lt;/font&gt;" style="ellipse;whiteSpace=wrap;html=1;" vertex="1" parent="1">
          <mxGeometry x="1560" y="-210" width="110" height="70" as="geometry" />
        </mxCell>
        <mxCell id="EQy5KtM84WTioe9oO2fu-6" value="" style="endArrow=none;html=1;rounded=0;" edge="1" parent="1">
          <mxGeometry width="50" height="50" relative="1" as="geometry">
            <mxPoint x="640" y="205" as="sourcePoint" />
            <mxPoint x="640" y="90" as="targetPoint" />
          </mxGeometry>
        </mxCell>
        <mxCell id="EQy5KtM84WTioe9oO2fu-7" value="" style="endArrow=none;html=1;rounded=0;" edge="1" parent="1">
          <mxGeometry width="50" height="50" relative="1" as="geometry">
            <mxPoint x="640" y="90" as="sourcePoint" />
            <mxPoint x="1009" y="90" as="targetPoint" />
          </mxGeometry>
        </mxCell>
        <mxCell id="EQy5KtM84WTioe9oO2fu-12" value="" style="endArrow=none;html=1;rounded=0;entryX=0.5;entryY=1;entryDx=0;entryDy=0;" edge="1" parent="1" target="EQy5KtM84WTioe9oO2fu-11">
          <mxGeometry width="50" height="50" relative="1" as="geometry">
            <mxPoint x="1010" y="90" as="sourcePoint" />
            <mxPoint x="1004" y="-362" as="targetPoint" />
          </mxGeometry>
        </mxCell>
        <mxCell id="EQy5KtM84WTioe9oO2fu-11" value="&lt;div&gt;&lt;font style=&quot;font-size: 13px;&quot;&gt;TIENE&lt;/font&gt;&lt;/div&gt;&lt;div&gt;&lt;span style=&quot;font-size: 13px;&quot;&gt;1:N&lt;/span&gt;&lt;/div&gt;" style="shape=rhombus;perimeter=rhombusPerimeter;whiteSpace=wrap;html=1;align=center;" vertex="1" parent="1">
          <mxGeometry x="951.25" y="-110" width="120" height="60" as="geometry" />
        </mxCell>
        <mxCell id="EQy5KtM84WTioe9oO2fu-13" value="" style="endArrow=none;html=1;rounded=0;exitX=0.5;exitY=0;exitDx=0;exitDy=0;entryX=0.75;entryY=1;entryDx=0;entryDy=0;" edge="1" parent="1" source="EQy5KtM84WTioe9oO2fu-11" target="PQYUU-_nngMEaI0ktpOC-13">
          <mxGeometry width="50" height="50" relative="1" as="geometry">
            <mxPoint x="1050" y="-130" as="sourcePoint" />
            <mxPoint x="1050" y="-250" as="targetPoint" />
          </mxGeometry>
        </mxCell>
        <mxCell id="EQy5KtM84WTioe9oO2fu-14" value="&lt;b&gt;1&lt;/b&gt;" style="text;html=1;align=center;verticalAlign=middle;whiteSpace=wrap;rounded=0;" vertex="1" parent="1">
          <mxGeometry x="640" y="180" width="20" height="20" as="geometry" />
        </mxCell>
        <mxCell id="EQy5KtM84WTioe9oO2fu-16" value="&lt;b&gt;N&lt;/b&gt;" style="text;html=1;align=center;verticalAlign=middle;whiteSpace=wrap;rounded=0;" vertex="1" parent="1">
          <mxGeometry x="1020" y="-360" width="20" height="20" as="geometry" />
        </mxCell>
        <mxCell id="EQy5KtM84WTioe9oO2fu-17" value="&lt;font style=&quot;font-size: 16px;&quot;&gt;accion&lt;/font&gt;" style="ellipse;whiteSpace=wrap;html=1;" vertex="1" parent="1">
          <mxGeometry x="1560" y="-115" width="110" height="70" as="geometry" />
        </mxCell>
        <mxCell id="EQy5KtM84WTioe9oO2fu-18" value="&lt;span style=&quot;font-size: 20px;&quot;&gt;automatizaciones_dispositivos&lt;/span&gt;" style="shape=ext;margin=3;double=1;whiteSpace=wrap;html=1;align=center;" vertex="1" parent="1">
          <mxGeometry x="490" y="-750" width="310" height="90" as="geometry" />
        </mxCell>
      </root>
    </mxGraphModel>
  </diagram>
</mxfile>
